# xmcd
#
# Track frame offsets:
#	150
#	12983
#	25280
#	35943
#	48681
#	66067
#	80486
#	93060
#	105945
#	119311
#	135013
#	151585
#	165274
#
# Disc length: 2378 seconds
#
# Revision: 0
# Processed by: cddbd v1.4PL0 Copyright (c) Steve Scherf et al.
# Submitted via: audiograbber 1.81.00
#
DISCID=8f09480d
DTITLE=Various Artist - The Best of Country - CD 2
DYEAR=1900
DGENRE=Country
TTITLE0=The Bellamy Brothers - Let your love flow
TTITLE1=Billie Jo Spears - What I've got in mind
TTITLE2=Jerry Wallace - Primrose Lane
TTITLE3=Charley Pride - Crystal Chandeliers
TTITLE4=Michelle Wright - Where do we go from here
TTITLE5=Waylon Jennings - Are you ready for the Country
TTITLE6=Faron Young - Four in the Morning
TTITLE7=Robson and Jerome - Daydream Believer
TTITLE8=Waylon Jennings and Willie Nelson - A good hearted Woman
TTITLE9=Sherrie Austin - Innocent Man
TTITLE10=Robert Earl Keen - Down that dusty trail
TTITLE11=B.J. Thomas - Raindrops keep falling on my head
TTITLE12=Kenny Rogers - Tuby, don't take your love to town
EXTD=
EXTT0=
EXTT1=
EXTT2=
EXTT3=
EXTT4=
EXTT5=
EXTT6=
EXTT7=
EXTT8=
EXTT9=
EXTT10=
EXTT11=
EXTT12=
PLAYORDER=
